<?xml version="1.0" encoding="UTF-8"?>
<svg id="Layer_1" data-name="Layer 1" xmlns="http://www.w3.org/2000/svg" viewBox="0 0 720 720">
  <defs>
    <style>
      .cls-1 {
        fill: #231f20;
      }

      .cls-2 {
        fill: #fff;
      }
    </style>
  </defs>
  <circle class="cls-2" cx="360" cy="360" r="360"/>
  <path class="cls-1" d="M598.77,431.21c0,30.76-12.58,55.92-35.89,72.7-24.23,17.24-43.81,16.78-61.98,16.78h-23.77v-79.69h21.9c11.19,0,17.24-6.52,17.24-16.31,0-8.39-6.52-14.91-15.38-14.91h-23.77v-82.95c15.38-.47,25.63-3.73,25.63-17.24,0-9.32-6.52-16.31-20.04-16.31h-32.5v135.61c0,17.71,0,35.89-14.91,58.72-16.78,26.1-44.27,40.54-75.5,40.54-28.43,0-59.65-16.77-75.03-43.81-17.24,29.36-42.87,43.81-76.43,43.81-45.2,0-87.14-38.68-87.14-85.28v-233.01h91.81v205.51c0,11.19,5.59,17.24,13.98,17.24,7.92,0,12.58-6.06,12.58-17.24v-205.51h91.81v203.65c0,13.05,6.52,19.11,14.44,19.11s12.58-6.06,12.58-17.24v-205.51h140.15c53.59,0,84.35,38.68,84.35,75.03,0,28.89-11.19,50.33-34.02,69.44,33.09,19.11,49.87,44.27,49.87,76.89Z"/>
</svg>